<?xml version="1.0"?>
<svg width="82px" height="42px" viewBox="0 21 82 43" version="1.1" xmlns="http://www.w3.org/2000/svg" xmlns:xlink="http://www.w3.org/1999/xlink">
  <rect fill="black" x="0" y="21.0834164" width="9.31713992" height="9.48753739"></rect>
  <rect fill="black" x="10.3523777" y="31.6251246" width="9.31713992" height="9.48753739"></rect>
  <rect fill="black" x="0" y="42.1668328" width="9.31713992" height="9.48753739"></rect>
  <rect fill="black" x="10.3523777" y="52.708541" width="9.31713992" height="9.48753739"></rect>
  <rect fill="black" x="20.7047554" y="52.708541" width="9.31713992" height="9.48753739"></rect>
  <rect fill="black" x="31.0571331" y="42.1668328" width="9.31713992" height="9.48753739"></rect>
  <rect fill="black" x="41.4095108" y="31.6251246" width="9.31713992" height="9.48753739"></rect>
  <rect fill="black" x="51.7618885" y="21.0834164" width="9.31713992" height="9.48753739"></rect>
  <rect fill="black" x="51.7618885" y="42.1668328" width="9.31713992" height="9.48753739"></rect>
  <rect fill="black" x="51.7618885" y="52.708541" width="9.31713992" height="9.48753739"></rect>
  <rect fill="black" x="72.4666439" y="52.708541" width="9.31713992" height="9.48753739"></rect>
  <rect fill="black" x="72.4666439" y="31.6251246" width="9.31713992" height="9.48753739"></rect>
  <rect fill="black" x="72.4666439" y="10.5417082" width="9.31713992" height="9.48753739"></rect>
  <rect fill="black" x="62.1142662" y="21.0834164" width="9.31713992" height="9.48753739"></rect>
  <rect fill="black" x="72.4666439" y="0" width="9.31713992" height="9.48753739"></rect>
  <rect fill="black" x="51.7618885" y="0" width="9.31713992" height="9.48753739"></rect>
  <rect fill="black" x="20.7047554" y="0" width="9.31713992" height="9.48753739"></rect>
  <rect fill="black" x="31.0571331" y="10.5417082" width="9.31713992" height="9.48753739"></rect>
</svg>
