<svg id="Ebene_1" data-name="Ebene 1" xmlns="http://www.w3.org/2000/svg" viewBox="0 0 293.27 328.58"><defs><style>.cls-1{fill:none;stroke:#1f1f1f;stroke-miterlimit:10;}</style></defs><title>statebox_black_txt_bottom</title><path class="cls-1" d="M104.56,354.09c8.77,0,13.44,7.31,13.44,7.31l-.88.58s-4.38-6.72-12.56-6.72c-7.31,0-12,4.68-12,9.35,0,11.1,26.3,8.18,26.3,21,0,6.14-5.55,11.69-14.61,11.69a18.4,18.4,0,0,1-16.07-9.06l.88-.58a17.34,17.34,0,0,0,15.19,8.47c7.89,0,12.86-5,12.86-10.52,0-11.1-26.3-8.18-26.3-21C90.83,359.35,96.09,354.09,104.56,354.09Z" transform="translate(-87.55 -69.26)"/><path class="cls-1" d="M138.16,356.43H123v-1.17h32.14l-.29,1.17h-14.9v39.74h-1.75Z" transform="translate(-87.55 -69.26)"/><path class="cls-1" d="M183.74,384.48H161l-5,11.69h-1.46l17.53-40.91h1.17l17.53,40.91h-2Zm-22.21-1.17h21.62l-10.69-25.13h-.23Z" transform="translate(-87.55 -69.26)"/><path class="cls-1" d="M205.37,356.43H190.17v-1.17h32.14l-.29,1.17h-14.9v39.74h-1.75Z" transform="translate(-87.55 -69.26)"/><path class="cls-1" d="M232,395h25.71v1.17H230.2V355.26h26.3l-.29,1.17H232v18.12h18.12l-.29,1.17H232Z" transform="translate(-87.55 -69.26)"/><path class="cls-1" d="M266.14,355.26h14.61c7.3,0,11.69,4.38,11.69,9.64,0,6.72-7,8.47-7,8.47v.29s10.52,1.46,10.52,11.1c0,6.14-5.26,11.4-13.44,11.4H266.14Zm1.75,1.17v16.95h12.86c6.14,0,9.93-3.8,9.93-8.47s-3.8-8.47-9.93-8.47Zm0,18.12V395H282.5c7,0,11.69-4.67,11.69-10.23s-4.67-10.23-11.69-10.23Z" transform="translate(-87.55 -69.26)"/><path class="cls-1" d="M322.83,354.09c11.4,0,20.16,8.77,20.16,21.62s-8.77,21.62-20.16,21.62-20.16-8.77-20.16-21.62S311.43,354.09,322.83,354.09Zm0,1.17c-10.23,0-18.41,8.18-18.41,20.46s8.18,20.45,18.41,20.45,18.41-8.18,18.41-20.45S333.05,355.26,322.83,355.26Z" transform="translate(-87.55 -69.26)"/><path class="cls-1" d="M362.86,376.59h-.29l-14.9,19.58H346.2L362,375.42l-14.9-20.16h2L362.86,374h.29l13.73-18.7h1.46l-14.61,19.87,16.07,21h-2Z" transform="translate(-87.55 -69.26)"/><polygon class="cls-1" points="206.14 161.33 203.06 152.93 194.23 151.39 197.32 159.79 206.14 161.33"/><polygon class="cls-1" points="207.17 161.41 203.1 152.33 193.2 151.31 197.28 160.39 207.17 161.41"/><polygon class="cls-1" points="208.32 161.42 203.1 151.67 192.06 151.3 197.27 161.05 208.32 161.42"/><polygon class="cls-1" points="209.59 161.33 203.06 150.94 190.78 151.38 197.32 161.78 209.59 161.33"/><polygon class="cls-1" points="211 161.14 202.95 150.13 189.38 151.57 197.43 162.59 211 161.14"/><polygon class="cls-1" points="212.54 160.82 202.76 149.24 187.83 151.89 197.61 163.48 212.54 160.82"/><polygon class="cls-1" points="214.23 160.35 202.49 148.26 186.15 152.37 197.89 164.46 214.23 160.35"/><polygon class="cls-1" points="216.06 159.7 202.11 147.21 184.32 153.02 198.26 165.51 216.06 159.7"/><polygon class="cls-1" points="218.04 158.83 201.61 146.07 182.34 153.89 198.76 166.65 218.04 158.83"/><polygon class="cls-1" points="220.16 157.71 200.97 144.84 180.21 155.01 199.41 167.88 220.16 157.71"/><polygon class="cls-1" points="222.43 156.31 200.16 143.53 177.94 156.41 200.22 169.19 222.43 156.31"/><polygon class="cls-1" points="224.84 154.58 199.16 142.14 175.53 158.14 201.21 170.58 224.84 154.58"/><polygon class="cls-1" points="227.38 152.48 197.95 140.68 173 160.24 202.43 172.04 227.38 152.48"/><polygon class="cls-1" points="230.02 149.95 196.49 139.15 170.35 162.77 203.88 173.57 230.02 149.95"/><polygon class="cls-1" points="232.76 146.94 194.76 137.57 167.61 165.77 205.62 175.15 232.76 146.94"/><polygon class="cls-1" points="235.56 143.4 192.71 135.96 164.81 169.32 207.66 176.76 235.56 143.4"/><polygon class="cls-1" points="238.39 139.25 190.32 134.33 161.98 173.47 210.05 178.39 238.39 139.25"/><polygon class="cls-1" points="241.21 134.44 187.55 132.7 159.17 178.28 212.83 180.02 241.21 134.44"/><polygon class="cls-1" points="243.96 128.88 184.34 131.12 156.42 183.84 216.03 181.6 243.96 128.88"/><polygon class="cls-1" points="246.57 122.51 180.67 129.61 153.8 190.21 219.71 183.11 246.57 122.51"/><polygon class="cls-1" points="248.98 115.25 176.48 128.22 151.4 197.47 223.9 184.5 248.98 115.25"/><polygon class="cls-1" points="251.08 107.01 171.73 127.01 149.29 205.71 228.65 185.71 251.08 107.01"/><polygon class="cls-1" points="252.78 97.72 166.37 126.03 147.6 215 234.01 186.69 252.78 97.72"/><polygon class="cls-1" points="253.93 87.29 160.35 125.36 146.44 225.43 240.02 187.35 253.93 87.29"/><polygon class="cls-1" points="254.41 75.63 153.63 125.09 145.97 237.09 246.74 187.63 254.41 75.63"/><polygon class="cls-1" points="254.03 62.68 146.16 125.31 146.35 250.04 254.21 187.41 254.03 62.68"/><polygon class="cls-1" points="93.77 160.82 99.51 153.96 90.68 152.42 84.95 159.29 93.77 160.82"/><polygon class="cls-1" points="94.26 161.16 100.09 153.1 90.19 152.08 84.37 160.14 94.26 161.16"/><polygon class="cls-1" points="94.84 161.5 100.67 152.12 89.62 151.75 83.79 161.13 94.84 161.5"/><polygon class="cls-1" points="95.5 161.82 101.23 150.97 88.96 151.42 83.22 162.27 95.5 161.82"/><polygon class="cls-1" points="96.25 162.13 101.77 149.66 88.2 151.11 82.68 163.58 96.25 162.13"/><polygon class="cls-1" points="97.12 162.42 102.27 148.17 87.34 150.83 82.19 165.08 97.12 162.42"/><polygon class="cls-1" points="98.1 162.67 102.7 146.47 86.36 150.58 81.75 166.77 98.1 162.67"/><polygon class="cls-1" points="99.2 162.87 103.05 144.56 85.25 150.38 81.41 168.68 99.2 162.87"/><polygon class="cls-1" points="100.44 163 103.29 142.41 84.01 150.24 81.17 170.83 100.44 163"/><polygon class="cls-1" points="101.83 163.06 103.39 140.02 82.63 150.19 81.07 173.23 101.83 163.06"/><polygon class="cls-1" points="103.36 163.01 103.31 137.35 81.09 150.23 81.15 175.89 103.36 163.01"/><polygon class="cls-1" points="105.07 162.84 103.02 134.41 79.39 150.4 81.44 178.84 105.07 162.84"/><polygon class="cls-1" points="106.94 162.52 102.47 131.16 77.51 150.72 81.99 182.08 106.94 162.52"/><polygon class="cls-1" points="108.99 162.02 101.6 127.61 75.46 151.22 82.85 185.64 108.99 162.02"/><polygon class="cls-1" points="111.23 161.31 100.37 123.74 73.23 151.94 84.08 189.51 111.23 161.31"/><polygon class="cls-1" points="113.65 160.34 98.7 119.54 70.8 152.9 85.75 193.71 113.65 160.34"/><polygon class="cls-1" points="116.26 159.09 96.53 115.02 68.19 154.16 87.92 198.23 116.26 159.09"/><polygon class="cls-1" points="119.06 157.49 93.78 110.17 65.39 155.75 90.68 203.07 119.06 157.49"/><polygon class="cls-1" points="122.04 155.51 90.34 105.02 62.42 157.74 94.11 208.23 122.04 155.51"/><polygon class="cls-1" points="125.18 153.08 86.14 99.57 59.27 160.17 98.31 213.67 125.18 153.08"/><polygon class="cls-1" points="128.48 150.14 81.06 93.86 55.98 163.11 103.39 219.39 128.48 150.14"/><polygon class="cls-1" points="131.91 146.63 74.98 87.92 52.55 166.62 109.47 225.32 131.91 146.63"/><polygon class="cls-1" points="135.43 142.47 67.79 81.81 49.02 170.78 116.66 231.44 135.43 142.47"/><polygon class="cls-1" points="139.02 137.58 59.35 75.59 45.44 175.66 125.11 237.65 139.02 137.58"/><polygon class="cls-1" points="142.62 131.89 49.5 69.36 41.84 181.35 134.95 243.89 142.62 131.89"/><polygon class="cls-1" points="146.16 125.31 38.11 63.2 38.29 187.94 146.35 250.04 146.16 125.31"/><polygon class="cls-1" points="150.48 63.71 147.39 55.31 141.66 62.17 144.74 70.58 150.48 63.71"/><polygon class="cls-1" points="151.02 63.45 146.94 54.38 141.12 62.43 145.19 71.51 151.02 63.45"/><polygon class="cls-1" points="151.59 63.13 146.38 53.38 140.54 62.76 145.76 72.51 151.59 63.13"/><polygon class="cls-1" points="152.21 62.72 145.67 52.32 139.93 63.17 146.47 73.57 152.21 62.72"/><polygon class="cls-1" points="152.85 62.22 144.8 51.2 139.28 63.67 147.34 74.69 152.85 62.22"/><polygon class="cls-1" points="153.53 61.61 143.75 50.02 138.6 64.27 148.38 75.86 153.53 61.61"/><polygon class="cls-1" points="154.24 60.89 142.5 48.8 137.9 65 149.63 77.08 154.24 60.89"/><polygon class="cls-1" points="154.97 60.03 141.02 47.55 137.17 65.85 151.12 78.34 154.97 60.03"/><polygon class="cls-1" points="155.71 59.03 139.28 46.27 136.43 66.86 152.86 79.62 155.71 59.03"/><polygon class="cls-1" points="156.45 57.86 137.25 44.98 135.69 68.03 154.89 80.9 156.45 57.86"/><polygon class="cls-1" points="157.18 56.5 134.9 43.72 134.96 69.38 157.23 82.16 157.18 56.5"/><polygon class="cls-1" points="157.88 54.95 132.2 42.5 134.25 70.94 159.93 83.38 157.88 54.95"/><polygon class="cls-1" points="158.54 53.16 129.12 41.36 133.59 72.72 163.02 84.52 158.54 53.16"/><polygon class="cls-1" points="159.14 51.14 125.61 40.34 133 74.75 166.53 85.55 159.14 51.14"/><polygon class="cls-1" points="159.64 48.84 121.64 39.47 132.5 77.04 170.5 86.42 159.64 48.84"/><polygon class="cls-1" points="160.02 46.26 117.17 38.82 132.12 79.62 174.97 87.07 160.02 46.26"/><polygon class="cls-1" points="160.24 43.37 112.17 38.44 131.9 82.51 179.97 87.44 160.24 43.37"/><polygon class="cls-1" points="160.26 40.15 106.59 38.42 131.88 85.73 185.54 87.47 160.26 40.15"/><polygon class="cls-1" points="160.03 36.58 100.41 38.82 132.11 89.3 191.72 87.07 160.03 36.58"/><polygon class="cls-1" points="159.5 32.64 93.6 39.74 132.64 93.24 198.54 86.15 159.5 32.64"/><polygon class="cls-1" points="158.61 28.32 86.11 41.29 133.53 97.57 206.03 84.6 158.61 28.32"/><polygon class="cls-1" points="157.29 23.59 77.93 43.59 134.85 102.29 214.21 82.3 157.29 23.59"/><polygon class="cls-1" points="155.45 18.46 69.04 46.77 136.69 107.43 223.09 79.12 155.45 18.46"/><polygon class="cls-1" points="153.02 12.91 59.44 50.98 139.12 112.98 232.7 74.9 153.02 12.91"/><polygon class="cls-1" points="149.9 6.95 49.12 56.4 142.24 118.94 243.01 69.48 149.9 6.95"/><polygon class="cls-1" points="145.98 0.58 38.11 63.2 146.16 125.31 254.03 62.68 145.98 0.58"/></svg>